# Blender v3.0.1 OBJ File: ''
# www.blender.org
mtllib fordfiesta.mtl
o Text
v 1.868000 0.682000 0.000000
v 1.779000 0.682000 0.000000
v 1.779000 0.440000 0.000000
v 1.770161 0.443085 0.000000
v 1.761620 0.445847 0.000000
v 1.753344 0.448297 0.000000
v 1.745296 0.450444 0.000000
v 1.737443 0.452300 0.000000
v 1.729750 0.453875 0.000000
v 1.722182 0.455179 0.000000
v 1.714704 0.456222 0.000000
v 1.707281 0.457016 0.000000
v 1.699880 0.457569 0.000000
v 1.692464 0.457894 0.000000
v 1.685000 0.458000 0.000000
v 1.653074 0.456095 0.000000
v 1.622921 0.450509 0.000000
v 1.594734 0.441438 0.000000
v 1.568704 0.429074 0.000000
v 1.545020 0.413613 0.000000
v 1.523875 0.395250 0.000000
v 1.505459 0.374178 0.000000
v 1.489963 0.350593 0.000000
v 1.477578 0.324688 0.000000
v 1.468496 0.296657 0.000000
v 1.462906 0.266697 0.000000
v 1.461000 0.235000 0.000000
v 1.462730 0.200126 0.000000
v 1.467843 0.167593 0.000000
v 1.476219 0.137531 0.000000
v 1.487741 0.110074 0.000000
v 1.502290 0.085353 0.000000
v 1.519750 0.063500 0.000000
v 1.540001 0.044647 0.000000
v 1.562926 0.028926 0.000000
v 1.588406 0.016469 0.000000
v 1.616324 0.007407 0.000000
v 1.646561 0.001874 0.000000
v 1.679000 0.000000 0.000000
v 1.868000 0.000000 0.000000
v 1.779000 0.075000 0.000000
v 1.689000 0.075000 0.000000
v 1.664667 0.076288 0.000000
v 1.643088 0.080056 0.000000
v 1.624141 0.086156 0.000000
v 1.607704 0.094444 0.000000
v 1.593656 0.104774 0.000000
v 1.581875 0.117000 0.000000
v 1.572240 0.130976 0.000000
v 1.564630 0.146556 0.000000
v 1.558922 0.163594 0.000000
v 1.554995 0.181944 0.000000
v 1.552729 0.201462 0.000000
v 1.552000 0.222000 0.000000
v 1.553191 0.244816 0.000000
v 1.556695 0.266194 0.000000
v 1.562406 0.286031 0.000000
v 1.570222 0.304222 0.000000
v 1.580038 0.320663 0.000000
v 1.591750 0.335250 0.000000
v 1.605253 0.347878 0.000000
v 1.620444 0.358444 0.000000
v 1.637219 0.366844 0.000000
v 1.655472 0.372972 0.000000
v 1.675101 0.376726 0.000000
v 1.696000 0.378000 0.000000
v 1.703362 0.377895 0.000000
v 1.710482 0.377574 0.000000
v 1.717406 0.377031 0.000000
v 1.724185 0.376259 0.000000
v 1.730867 0.375251 0.000000
v 1.737500 0.374000 0.000000
v 1.744133 0.372499 0.000000
v 1.750815 0.370741 0.000000
v 1.757594 0.368719 0.000000
v 1.764518 0.366426 0.000000
v 1.771638 0.363855 0.000000
v 1.779000 0.361000 0.000000
v 1.090000 0.449000 0.000000
v 1.090000 0.000000 0.000000
v 1.179000 0.000000 0.000000
v 1.179000 0.235000 0.000000
v 1.179980 0.253891 0.000000
v 1.182838 0.271958 0.000000
v 1.187453 0.289047 0.000000
v 1.193704 0.305000 0.000000
v 1.201468 0.319661 0.000000
v 1.210625 0.332875 0.000000
v 1.221053 0.344484 0.000000
v 1.232630 0.354333 0.000000
v 1.245234 0.362266 0.000000
v 1.258746 0.368125 0.000000
v 1.273041 0.371755 0.000000
v 1.288000 0.373000 0.000000
v 1.293529 0.372631 0.000000
v 1.299565 0.371546 0.000000
v 1.306031 0.369781 0.000000
v 1.312852 0.367370 0.000000
v 1.319950 0.364348 0.000000
v 1.327250 0.360750 0.000000
v 1.334675 0.356610 0.000000
v 1.342148 0.351963 0.000000
v 1.349594 0.346844 0.000000
v 1.356935 0.341287 0.000000
v 1.364096 0.335328 0.000000
v 1.371000 0.329000 0.000000
v 1.418000 0.406000 0.000000
v 1.408810 0.414376 0.000000
v 1.399727 0.422005 0.000000
v 1.390734 0.428891 0.000000
v 1.381815 0.435037 0.000000
v 1.372951 0.440447 0.000000
v 1.364125 0.445125 0.000000
v 1.355320 0.449074 0.000000
v 1.346519 0.452296 0.000000
v 1.337703 0.454797 0.000000
v 1.328857 0.456579 0.000000
v 1.319961 0.457645 0.000000
v 1.311000 0.458000 0.000000
v 1.300479 0.457305 0.000000
v 1.289912 0.455190 0.000000
v 1.279297 0.451609 0.000000
v 1.268630 0.446519 0.000000
v 1.257907 0.439872 0.000000
v 1.247125 0.431625 0.000000
v 1.236281 0.421732 0.000000
v 1.225370 0.410148 0.000000
v 1.214391 0.396828 0.000000
v 1.203338 0.381727 0.000000
v 1.192209 0.364799 0.000000
v 1.181000 0.346000 0.000000
v 1.179000 0.346000 0.000000
v 1.179000 0.449000 0.000000
v 0.742000 0.458000 0.000000
v 0.709188 0.455958 0.000000
v 0.677917 0.449995 0.000000
v 0.648438 0.440359 0.000000
v 0.621000 0.427296 0.000000
v 0.595854 0.411053 0.000000
v 0.573250 0.391875 0.000000
v 0.553438 0.370010 0.000000
v 0.536667 0.345704 0.000000
v 0.523188 0.319203 0.000000
v 0.513250 0.290755 0.000000
v 0.507104 0.260605 0.000000
v 0.505000 0.229000 0.000000
v 0.507028 0.195328 0.000000
v 0.512972 0.163454 0.000000
v 0.522625 0.133594 0.000000
v 0.535778 0.105963 0.000000
v 0.552222 0.080777 0.000000
v 0.571750 0.058250 0.000000
v 0.594153 0.038598 0.000000
v 0.619222 0.022037 0.000000
v 0.646750 0.008781 0.000000
v 0.676528 -0.000954 -0.000000
v 0.708347 -0.006953 -0.000000
v 0.742000 -0.009000 -0.000000
v 0.777031 -0.007029 -0.000000
v 0.810000 -0.001231 -0.000000
v 0.840719 0.008219 0.000000
v 0.869000 0.021148 0.000000
v 0.894656 0.037383 0.000000
v 0.917500 0.056750 0.000000
v 0.937344 0.079075 0.000000
v 0.954000 0.104185 0.000000
v 0.967281 0.131906 0.000000
v 0.977000 0.162065 0.000000
v 0.982969 0.194487 0.000000
v 0.985000 0.229000 0.000000
v 0.982911 0.261445 0.000000
v 0.976792 0.292144 0.000000
v 0.966859 0.320891 0.000000
v 0.953333 0.347482 0.000000
v 0.936432 0.371711 0.000000
v 0.916375 0.393375 0.000000
v 0.893380 0.412268 0.000000
v 0.867667 0.428185 0.000000
v 0.839453 0.440922 0.000000
v 0.808958 0.450273 0.000000
v 0.776401 0.456034 0.000000
v 0.741000 0.378000 0.000000
v 0.762707 0.376710 0.000000
v 0.783236 0.372931 0.000000
v 0.802453 0.366797 0.000000
v 0.820222 0.358444 0.000000
v 0.836408 0.348009 0.000000
v 0.850875 0.335625 0.000000
v 0.863488 0.321429 0.000000
v 0.874111 0.305556 0.000000
v 0.882609 0.288141 0.000000
v 0.888847 0.269320 0.000000
v 0.892689 0.249227 0.000000
v 0.894000 0.228000 0.000000
v 0.892785 0.204534 0.000000
v 0.889194 0.182690 0.000000
v 0.883313 0.162547 0.000000
v 0.875222 0.144185 0.000000
v 0.865007 0.127685 0.000000
v 0.852750 0.113125 0.000000
v 0.838535 0.100586 0.000000
v 0.822444 0.090148 0.000000
v 0.804563 0.081891 0.000000
v 0.784972 0.075894 0.000000
v 0.763757 0.072237 0.000000
v 0.741000 0.071000 0.000000
v 0.720081 0.072295 0.000000
v 0.700398 0.076106 0.000000
v 0.682063 0.082328 0.000000
v 0.665185 0.090852 0.000000
v 0.649877 0.101570 0.000000
v 0.636250 0.114375 0.000000
v 0.624414 0.129159 0.000000
v 0.614482 0.145815 0.000000
v 0.606563 0.164234 0.000000
v 0.600769 0.184310 0.000000
v 0.597211 0.205935 0.000000
v 0.596000 0.229000 0.000000
v 0.597249 0.249998 0.000000
v 0.600907 0.269898 0.000000
v 0.606844 0.288563 0.000000
v 0.614926 0.305852 0.000000
v 0.625022 0.321627 0.000000
v 0.637000 0.335750 0.000000
v 0.650728 0.348081 0.000000
v 0.666074 0.358482 0.000000
v 0.682906 0.366813 0.000000
v 0.701093 0.372935 0.000000
v 0.720501 0.376711 0.000000
v 0.440000 0.682000 0.000000
v 0.076000 0.682000 0.000000
v 0.076000 0.000000 0.000000
v 0.174000 0.000000 0.000000
v 0.174000 0.317000 0.000000
v 0.440000 0.317000 0.000000
v 0.440000 0.405000 0.000000
v 0.174000 0.405000 0.000000
v 0.174000 0.594000 0.000000
v 0.440000 0.594000 0.000000
vt 0.025974 0.000000
vt 0.000000 0.000000
vt 0.012987 0.000000
vt 0.506494 0.000000
vt 0.194805 0.000000
vt 0.168831 0.000000
vt 0.181818 0.000000
vt 0.155844 0.000000
vt 0.142857 0.000000
vt 0.129870 0.000000
vt 0.116883 0.000000
vt 0.207792 0.000000
vt 0.103896 0.000000
vt 0.090909 0.000000
vt 0.077922 0.000000
vt 0.220779 0.000000
vt 0.064935 0.000000
vt 0.051948 0.000000
vt 0.038961 0.000000
vt 0.233766 0.000000
vt 0.961039 0.000000
vt 0.974026 0.000000
vt 0.987013 0.000000
vt 1.000000 0.000000
vt 0.246753 0.000000
vt 0.922078 0.000000
vt 0.935065 0.000000
vt 0.948052 0.000000
vt 0.259740 0.000000
vt 0.883117 0.000000
vt 0.896104 0.000000
vt 0.909091 0.000000
vt 0.272727 0.000000
vt 0.844156 0.000000
vt 0.857143 0.000000
vt 0.870130 0.000000
vt 0.831169 0.000000
vt 0.818182 0.000000
vt 0.285714 0.000000
vt 0.805195 0.000000
vt 0.792208 0.000000
vt 0.519481 0.000000
vt 0.779221 0.000000
vt 0.298701 0.000000
vt 0.766234 0.000000
vt 0.753247 0.000000
vt 0.311688 0.000000
vt 0.740260 0.000000
vt 0.727273 0.000000
vt 0.324675 0.000000
vt 0.714286 0.000000
vt 0.337662 0.000000
vt 0.701299 0.000000
vt 0.688312 0.000000
vt 0.350649 0.000000
vt 0.675325 0.000000
vt 0.662338 0.000000
vt 0.363636 0.000000
vt 0.649351 0.000000
vt 0.376623 0.000000
vt 0.636364 0.000000
vt 0.623377 0.000000
vt 0.389610 0.000000
vt 0.610390 0.000000
vt 0.597403 0.000000
vt 0.402597 0.000000
vt 0.584416 0.000000
vt 0.571429 0.000000
vt 0.558442 0.000000
vt 0.415584 0.000000
vt 0.545455 0.000000
vt 0.532468 0.000000
vt 0.428571 0.000000
vt 0.441558 0.000000
vt 0.454545 0.000000
vt 0.467532 0.000000
vt 0.480519 0.000000
vt 0.493506 0.000000
vt 0.759259 0.000000
vt 0.722222 0.000000
vt 0.740741 0.000000
vt 0.703704 0.000000
vt 0.777778 0.000000
vt 0.685185 0.000000
vt 0.796296 0.000000
vt 0.666667 0.000000
vt 0.648148 0.000000
vt 0.814815 0.000000
vt 0.629630 0.000000
vt 0.018519 0.000000
vt 1.000000 0.000000
vt 0.000000 0.000000
vt 0.981481 0.000000
vt 0.833333 0.000000
vt 0.611111 0.000000
vt 0.592593 0.000000
vt 0.851852 0.000000
vt 0.574074 0.000000
vt 0.870370 0.000000
vt 0.555556 0.000000
vt 0.537037 0.000000
vt 0.888889 0.000000
vt 0.518519 0.000000
vt 0.907407 0.000000
vt 0.333333 0.000000
vt 0.351852 0.000000
vt 0.370370 0.000000
vt 0.388889 0.000000
vt 0.407407 0.000000
vt 0.425926 0.000000
vt 0.444444 0.000000
vt 0.462963 0.000000
vt 0.481481 0.000000
vt 0.500000 0.000000
vt 0.925926 0.000000
vt 0.296296 0.000000
vt 0.314815 0.000000
vt 0.944444 0.000000
vt 0.259259 0.000000
vt 0.277778 0.000000
vt 0.240741 0.000000
vt 0.222222 0.000000
vt 0.962963 0.000000
vt 0.203704 0.000000
vt 0.185185 0.000000
vt 0.111111 0.000000
vt 0.129630 0.000000
vt 0.148148 0.000000
vt 0.166667 0.000000
vt 0.092593 0.000000
vt 0.074074 0.000000
vt 0.055556 0.000000
vt 0.037037 0.000000
vt 0.010526 0.000000
vt 0.494737 0.000000
vt 0.000000 0.000000
vt 0.484211 0.000000
vt 0.021053 0.000000
vt 0.473684 0.000000
vt 0.031579 0.000000
vt 0.463158 0.000000
vt 0.042105 0.000000
vt 0.452632 0.000000
vt 0.052632 0.000000
vt 0.442105 0.000000
vt 0.063158 0.000000
vt 0.431579 0.000000
vt 0.073684 0.000000
vt 0.505263 0.000000
vt 1.000000 0.000000
vt 0.515789 0.000000
vt 0.989474 0.000000
vt 0.526316 0.000000
vt 0.978947 0.000000
vt 0.536842 0.000000
vt 0.421053 0.000000
vt 0.084211 0.000000
vt 0.968421 0.000000
vt 0.547368 0.000000
vt 0.957895 0.000000
vt 0.557895 0.000000
vt 0.947368 0.000000
vt 0.568421 0.000000
vt 0.410526 0.000000
vt 0.094737 0.000000
vt 0.936842 0.000000
vt 0.578947 0.000000
vt 0.926316 0.000000
vt 0.589474 0.000000
vt 0.400000 0.000000
vt 0.105263 0.000000
vt 0.915789 0.000000
vt 0.600000 0.000000
vt 0.389474 0.000000
vt 0.115789 0.000000
vt 0.905263 0.000000
vt 0.610526 0.000000
vt 0.894737 0.000000
vt 0.621053 0.000000
vt 0.378947 0.000000
vt 0.126316 0.000000
vt 0.884211 0.000000
vt 0.631579 0.000000
vt 0.136842 0.000000
vt 0.873684 0.000000
vt 0.368421 0.000000
vt 0.642105 0.000000
vt 0.863158 0.000000
vt 0.652632 0.000000
vt 0.147368 0.000000
vt 0.357895 0.000000
vt 0.852632 0.000000
vt 0.663158 0.000000
vt 0.842105 0.000000
vt 0.157895 0.000000
vt 0.673684 0.000000
vt 0.347368 0.000000
vt 0.831579 0.000000
vt 0.684211 0.000000
vt 0.168421 0.000000
vt 0.336842 0.000000
vt 0.821053 0.000000
vt 0.694737 0.000000
vt 0.810526 0.000000
vt 0.705263 0.000000
vt 0.178947 0.000000
vt 0.326316 0.000000
vt 0.800000 0.000000
vt 0.715789 0.000000
vt 0.789474 0.000000
vt 0.726316 0.000000
vt 0.778947 0.000000
vt 0.736842 0.000000
vt 0.189474 0.000000
vt 0.315789 0.000000
vt 0.768421 0.000000
vt 0.747368 0.000000
vt 0.757895 0.000000
vt 0.200000 0.000000
vt 0.305263 0.000000
vt 0.210526 0.000000
vt 0.294737 0.000000
vt 0.221053 0.000000
vt 0.284211 0.000000
vt 0.231579 0.000000
vt 0.273684 0.000000
vt 0.242105 0.000000
vt 0.263158 0.000000
vt 0.252632 0.000000
vt 0.222222 0.000000
vt 0.888889 0.000000
vt 0.111111 0.000000
vt 0.000000 0.000000
vt 1.000000 0.000000
vt 0.777778 0.000000
vt 0.444444 0.000000
vt 0.666667 0.000000
vt 0.555556 0.000000
vt 0.333333 0.000000
vn 0.0000 -0.0000 1.0000
usemtl None
s off
f 3/1/1 1/2/1 2/3/1
f 3/1/1 40/4/1 1/2/1
f 16/5/1 14/6/1 15/7/1
f 16/5/1 13/8/1 14/6/1
f 16/5/1 12/9/1 13/8/1
f 16/5/1 11/10/1 12/9/1
f 16/5/1 10/11/1 11/10/1
f 17/12/1 10/11/1 16/5/1
f 17/12/1 9/13/1 10/11/1
f 17/12/1 8/14/1 9/13/1
f 17/12/1 7/15/1 8/14/1
f 18/16/1 7/15/1 17/12/1
f 18/16/1 6/17/1 7/15/1
f 18/16/1 5/18/1 6/17/1
f 18/16/1 4/19/1 5/18/1
f 18/16/1 3/1/1 4/19/1
f 19/20/1 3/1/1 18/16/1
f 19/20/1 75/21/1 3/1/1
f 75/21/1 76/22/1 3/1/1
f 76/22/1 77/23/1 3/1/1
f 77/23/1 78/24/1 3/1/1
f 78/24/1 40/4/1 3/1/1
f 20/25/1 72/26/1 19/20/1
f 72/26/1 73/27/1 19/20/1
f 73/27/1 74/28/1 19/20/1
f 74/28/1 75/21/1 19/20/1
f 21/29/1 69/30/1 20/25/1
f 69/30/1 70/31/1 20/25/1
f 70/31/1 71/32/1 20/25/1
f 71/32/1 72/26/1 20/25/1
f 22/33/1 66/34/1 21/29/1
f 66/34/1 67/35/1 21/29/1
f 67/35/1 68/36/1 21/29/1
f 68/36/1 69/30/1 21/29/1
f 22/33/1 65/37/1 66/34/1
f 22/33/1 64/38/1 65/37/1
f 23/39/1 64/38/1 22/33/1
f 23/39/1 63/40/1 64/38/1
f 23/39/1 62/41/1 63/40/1
f 41/42/1 40/4/1 78/24/1
f 23/39/1 61/43/1 62/41/1
f 24/44/1 61/43/1 23/39/1
f 24/44/1 60/45/1 61/43/1
f 24/44/1 59/46/1 60/45/1
f 25/47/1 59/46/1 24/44/1
f 25/47/1 58/48/1 59/46/1
f 25/47/1 57/49/1 58/48/1
f 26/50/1 57/49/1 25/47/1
f 26/50/1 56/51/1 57/49/1
f 27/52/1 56/51/1 26/50/1
f 27/52/1 55/53/1 56/51/1
f 27/52/1 54/54/1 55/53/1
f 28/55/1 54/54/1 27/52/1
f 28/55/1 53/56/1 54/54/1
f 28/55/1 52/57/1 53/56/1
f 29/58/1 52/57/1 28/55/1
f 29/58/1 51/59/1 52/57/1
f 30/60/1 51/59/1 29/58/1
f 30/60/1 50/61/1 51/59/1
f 30/60/1 49/62/1 50/61/1
f 31/63/1 49/62/1 30/60/1
f 31/63/1 48/64/1 49/62/1
f 31/63/1 47/65/1 48/64/1
f 32/66/1 47/65/1 31/63/1
f 32/66/1 46/67/1 47/65/1
f 32/66/1 45/68/1 46/67/1
f 32/66/1 44/69/1 45/68/1
f 33/70/1 44/69/1 32/66/1
f 33/70/1 43/71/1 44/69/1
f 33/70/1 42/72/1 43/71/1
f 33/70/1 41/42/1 42/72/1
f 33/70/1 40/4/1 41/42/1
f 34/73/1 40/4/1 33/70/1
f 35/74/1 40/4/1 34/73/1
f 36/75/1 40/4/1 35/74/1
f 37/76/1 40/4/1 36/75/1
f 38/77/1 40/4/1 37/76/1
f 39/78/1 40/4/1 38/77/1
f 120/79/1 118/80/1 119/81/1
f 120/79/1 117/82/1 118/80/1
f 121/83/1 117/82/1 120/79/1
f 121/83/1 116/84/1 117/82/1
f 122/85/1 116/84/1 121/83/1
f 122/85/1 115/86/1 116/84/1
f 122/85/1 114/87/1 115/86/1
f 123/88/1 114/87/1 122/85/1
f 123/88/1 113/89/1 114/87/1
f 80/90/1 133/91/1 79/92/1
f 80/90/1 132/93/1 133/91/1
f 124/94/1 113/89/1 123/88/1
f 124/94/1 112/95/1 113/89/1
f 124/94/1 111/96/1 112/95/1
f 125/97/1 111/96/1 124/94/1
f 125/97/1 110/98/1 111/96/1
f 126/99/1 110/98/1 125/97/1
f 126/99/1 109/100/1 110/98/1
f 126/99/1 108/101/1 109/100/1
f 127/102/1 108/101/1 126/99/1
f 127/102/1 107/103/1 108/101/1
f 128/104/1 107/103/1 127/102/1
f 128/104/1 97/105/1 107/103/1
f 97/105/1 98/106/1 107/103/1
f 98/106/1 99/107/1 107/103/1
f 99/107/1 100/108/1 107/103/1
f 100/108/1 101/109/1 107/103/1
f 101/109/1 102/110/1 107/103/1
f 102/110/1 103/111/1 107/103/1
f 103/111/1 104/112/1 107/103/1
f 104/112/1 105/113/1 107/103/1
f 105/113/1 106/114/1 107/103/1
f 129/115/1 95/116/1 128/104/1
f 95/116/1 96/117/1 128/104/1
f 96/117/1 97/105/1 128/104/1
f 130/118/1 93/119/1 129/115/1
f 93/119/1 94/120/1 129/115/1
f 94/120/1 95/116/1 129/115/1
f 130/118/1 92/121/1 93/119/1
f 130/118/1 91/122/1 92/121/1
f 131/123/1 91/122/1 130/118/1
f 131/123/1 90/124/1 91/122/1
f 131/123/1 89/125/1 90/124/1
f 80/90/1 131/123/1 132/93/1
f 80/90/1 85/126/1 131/123/1
f 85/126/1 86/127/1 131/123/1
f 86/127/1 87/128/1 131/123/1
f 87/128/1 88/129/1 131/123/1
f 88/129/1 89/125/1 131/123/1
f 80/90/1 84/130/1 85/126/1
f 80/90/1 83/131/1 84/130/1
f 80/90/1 82/132/1 83/131/1
f 80/90/1 81/133/1 82/132/1
f 135/134/1 181/135/1 134/136/1
f 135/134/1 180/137/1 181/135/1
f 136/138/1 180/137/1 135/134/1
f 136/138/1 179/139/1 180/137/1
f 137/140/1 179/139/1 136/138/1
f 137/140/1 178/141/1 179/139/1
f 138/142/1 178/141/1 137/140/1
f 138/142/1 177/143/1 178/141/1
f 139/144/1 177/143/1 138/142/1
f 139/144/1 176/145/1 177/143/1
f 140/146/1 176/145/1 139/144/1
f 140/146/1 175/147/1 176/145/1
f 141/148/1 182/149/1 140/146/1
f 182/149/1 175/147/1 140/146/1
f 141/148/1 229/150/1 182/149/1
f 183/151/1 175/147/1 182/149/1
f 141/148/1 228/152/1 229/150/1
f 184/153/1 175/147/1 183/151/1
f 141/148/1 227/154/1 228/152/1
f 185/155/1 175/147/1 184/153/1
f 185/155/1 174/156/1 175/147/1
f 142/157/1 227/154/1 141/148/1
f 142/157/1 226/158/1 227/154/1
f 186/159/1 174/156/1 185/155/1
f 142/157/1 225/160/1 226/158/1
f 187/161/1 174/156/1 186/159/1
f 142/157/1 224/162/1 225/160/1
f 188/163/1 174/156/1 187/161/1
f 188/163/1 173/164/1 174/156/1
f 143/165/1 224/162/1 142/157/1
f 143/165/1 223/166/1 224/162/1
f 189/167/1 173/164/1 188/163/1
f 143/165/1 222/168/1 223/166/1
f 190/169/1 173/164/1 189/167/1
f 190/169/1 172/170/1 173/164/1
f 144/171/1 222/168/1 143/165/1
f 144/171/1 221/172/1 222/168/1
f 191/173/1 172/170/1 190/169/1
f 191/173/1 171/174/1 172/170/1
f 145/175/1 221/172/1 144/171/1
f 145/175/1 220/176/1 221/172/1
f 192/177/1 171/174/1 191/173/1
f 145/175/1 219/178/1 220/176/1
f 193/179/1 171/174/1 192/177/1
f 193/179/1 170/180/1 171/174/1
f 146/181/1 219/178/1 145/175/1
f 146/181/1 218/182/1 219/178/1
f 194/183/1 170/180/1 193/179/1
f 147/184/1 218/182/1 146/181/1
f 147/184/1 217/185/1 218/182/1
f 194/183/1 169/186/1 170/180/1
f 195/187/1 169/186/1 194/183/1
f 147/184/1 216/188/1 217/185/1
f 196/189/1 169/186/1 195/187/1
f 148/190/1 216/188/1 147/184/1
f 196/189/1 168/191/1 169/186/1
f 148/190/1 215/192/1 216/188/1
f 197/193/1 168/191/1 196/189/1
f 148/190/1 214/194/1 215/192/1
f 149/195/1 214/194/1 148/190/1
f 198/196/1 168/191/1 197/193/1
f 198/196/1 167/197/1 168/191/1
f 149/195/1 213/198/1 214/194/1
f 199/199/1 167/197/1 198/196/1
f 150/200/1 213/198/1 149/195/1
f 199/199/1 166/201/1 167/197/1
f 150/200/1 212/202/1 213/198/1
f 200/203/1 166/201/1 199/199/1
f 150/200/1 211/204/1 212/202/1
f 201/205/1 166/201/1 200/203/1
f 151/206/1 211/204/1 150/200/1
f 201/205/1 165/207/1 166/201/1
f 151/206/1 210/208/1 211/204/1
f 202/209/1 165/207/1 201/205/1
f 151/206/1 209/210/1 210/208/1
f 203/211/1 165/207/1 202/209/1
f 151/206/1 208/212/1 209/210/1
f 204/213/1 165/207/1 203/211/1
f 152/214/1 208/212/1 151/206/1
f 204/213/1 164/215/1 165/207/1
f 152/214/1 207/216/1 208/212/1
f 205/217/1 164/215/1 204/213/1
f 152/214/1 206/218/1 207/216/1
f 206/218/1 164/215/1 205/217/1
f 152/214/1 164/215/1 206/218/1
f 153/219/1 164/215/1 152/214/1
f 153/219/1 163/220/1 164/215/1
f 154/221/1 163/220/1 153/219/1
f 154/221/1 162/222/1 163/220/1
f 155/223/1 162/222/1 154/221/1
f 155/223/1 161/224/1 162/222/1
f 156/225/1 161/224/1 155/223/1
f 156/225/1 160/226/1 161/224/1
f 157/227/1 160/226/1 156/225/1
f 157/227/1 159/228/1 160/226/1
f 158/229/1 159/228/1 157/227/1
f 232/230/1 238/231/1 231/232/1
f 238/231/1 230/233/1 231/232/1
f 238/231/1 239/234/1 230/233/1
f 232/230/1 237/235/1 238/231/1
f 232/230/1 234/236/1 237/235/1
f 234/236/1 236/237/1 237/235/1
f 234/236/1 235/238/1 236/237/1
f 232/230/1 233/239/1 234/236/1
